<?xml version="1.0" standalone="no"?>
<!DOCTYPE svg PUBLIC "-//W3C//DTD SVG 20010904//EN"
 "http://www.w3.org/TR/2001/REC-SVG-20010904/DTD/svg10.dtd">
<svg version="1.0" xmlns="http://www.w3.org/2000/svg"
 width="1024.000000pt" height="1024.000000pt" viewBox="0 0 1024.000000 1024.000000"
 preserveAspectRatio="xMidYMid meet">

<g transform="translate(0.000000,1024.000000) scale(0.100000,-0.100000)"
fill="#000000" stroke="none">
<path d="M3515 8318 c-75 -32 -152 -87 -231 -164 -99 -97 -170 -226 -216 -391
-22 -76 -23 -95 -28 -798 l-5 -720 -30 -3 c-16 -1 -49 -5 -72 -8 l-43 -5 0
-595 c0 -391 -4 -602 -10 -615 -9 -16 -22 -19 -76 -19 l-65 0 3 -303 3 -303
38 -52 c37 -49 81 -92 97 -92 12 0 18 206 11 416 l-6 201 588 8 c324 4 590 5
592 3 3 -2 1 -17 -4 -34 l-7 -29 -234 -5 -234 -5 -6 -25 c-4 -14 -6 -268 -6
-565 1 -630 -6 -584 111 -673 101 -75 448 -244 465 -225 12 11 30 736 33 1250
l2 432 -67 7 c-55 5 -69 10 -74 26 -7 23 3 1022 12 1126 l6 72 -40 0 c-22 0
-52 3 -68 6 l-29 5 0 707 c0 515 -3 726 -12 778 -42 239 -183 568 -258 602
-38 18 -84 14 -140 -10z m165 -106 c38 -38 51 -88 57 -211 8 -166 -23 -265
-113 -359 -43 -44 -45 -49 -36 -80 11 -35 10 -84 -7 -266 -5 -64 -14 -112 -21
-116 -7 -4 -14 -37 -17 -74 -3 -36 -9 -66 -13 -66 -7 0 -12 -33 -31 -185 -15
-131 -25 -180 -42 -212 -20 -37 -23 -139 -6 -145 16 -5 2 -98 -14 -98 -16 0
-62 -41 -70 -62 -3 -10 -16 -18 -27 -18 -18 0 -26 -16 -20 -45 1 -7 -2 -7 -9
0 -5 6 -11 28 -14 50 -3 36 -4 35 -5 -12 l-2 -52 53 -4 c28 -2 -2 -4 -68 -5
l-120 -2 0 337 c0 186 -2 507 -5 713 -5 369 -5 377 19 475 23 97 47 158 76
193 8 9 28 36 44 59 58 80 179 168 275 198 63 20 85 18 116 -13z m200 -2108
c11 -11 11 -1067 0 -1077 -3 -2 -192 -6 -420 -8 l-415 -4 -3 543 -2 542 112 1
c62 1 172 4 243 8 209 10 473 7 485 -5z"/>
<path d="M4745 8133 c-33 -2 -62 -9 -66 -14 -3 -6 -31 -11 -62 -11 -43 -1 -54
-4 -50 -14 3 -10 -3 -14 -20 -14 -23 0 -27 -5 -32 -42 -4 -26 2 -100 14 -181
25 -166 26 -191 6 -211 -8 -8 -15 -21 -15 -28 0 -7 -5 -20 -10 -28 -9 -13 -11
-13 -21 0 -25 36 45 -219 88 -316 l27 -63 23 137 c49 292 139 518 263 662 41
47 81 91 90 98 13 12 13 13 -2 9 -9 -3 -19 -3 -22 1 -13 12 -131 21 -211 15z"/>
<path d="M5856 8024 c2 -19 11 -50 18 -69 l14 -33 94 36 c71 27 113 36 178 40
l85 5 -60 14 c-33 8 -116 17 -185 21 -69 4 -130 11 -137 15 -8 5 -10 -3 -7
-29z"/>
<path d="M2151 7925 c-30 -7 -91 -32 -137 -55 -115 -58 -200 -144 -257 -258
-42 -85 -42 -86 -42 -196 0 -120 14 -193 72 -386 35 -116 158 -392 238 -531
l44 -76 -8 -404 c-12 -604 -3 -680 134 -1044 116 -308 320 -651 552 -928 361
-431 893 -784 1438 -955 275 -87 459 -121 765 -143 253 -18 473 -2 805 57 540
95 1038 337 1456 704 468 413 802 956 950 1548 71 282 93 464 93 787 1 276
-10 387 -59 622 -25 117 -118 432 -162 543 -51 131 -164 354 -225 443 -48 72
-144 204 -163 225 -2 2 32 -67 75 -154 103 -207 135 -288 183 -474 l41 -155 0
-210 c1 -231 -6 -280 -70 -493 -80 -263 -271 -562 -469 -735 -100 -86 -261
-195 -374 -251 -189 -95 -462 -181 -716 -226 -451 -81 -504 -93 -725 -166
-168 -56 -348 -138 -475 -215 -507 -308 -823 -821 -875 -1419 -6 -68 -9 -129
-6 -136 20 -53 -322 81 -568 223 -303 174 -613 427 -811 663 -154 182 -308
397 -364 508 -35 69 -37 84 -16 102 13 11 15 118 15 851 l0 838 26 38 c87 127
278 570 315 728 15 66 15 244 -1 320 -30 149 -138 299 -254 354 -139 67 -296
87 -425 56z m252 -130 c32 -8 76 -25 100 -36 53 -28 152 -130 183 -190 l23
-47 -37 -25 c-20 -13 -49 -28 -64 -31 -16 -4 -28 -11 -28 -16 0 -6 -12 -10
-27 -11 -23 0 -20 -3 17 -15 25 -8 63 -16 85 -18 48 -5 95 -25 95 -41 0 -6
-14 -65 -31 -131 -47 -186 -168 -485 -264 -652 -30 -53 -56 -99 -57 -104 -2
-5 -17 -4 -33 2 -20 8 -61 9 -120 5 l-91 -7 -42 88 c-23 49 -64 132 -92 184
-64 121 -139 313 -180 459 -43 154 -41 236 10 336 43 85 106 150 190 194 130
70 244 87 363 56z m5701 -1315 c9 -85 19 -213 22 -285 13 -260 -58 -862 -103
-880 -7 -2 -13 0 -13 6 0 5 -11 7 -27 3 -25 -7 -27 -6 -15 9 8 9 12 25 10 37
-2 12 -19 -24 -42 -87 -22 -60 -58 -153 -82 -208 -59 -141 -60 -144 -34 -162
17 -12 19 -17 9 -24 -22 -14 -42 -11 -35 6 3 8 1 15 -4 15 -7 0 -23 -32 -25
-51 0 -3 -7 -13 -16 -21 -9 -9 -22 -31 -29 -50 -8 -18 -22 -43 -31 -56 -10
-13 -15 -30 -12 -39 4 -11 2 -14 -5 -9 -6 3 -16 -3 -22 -14 -9 -16 -8 -20 5
-20 8 0 15 5 15 12 0 6 3 9 6 5 3 -3 -1 -16 -9 -28 -16 -21 -12 -48 7 -61 7
-4 1 -17 -15 -35 -15 -15 -30 -41 -33 -58 -4 -16 -11 -50 -17 -75 -5 -25 -19
-54 -31 -65 -11 -11 -18 -14 -14 -7 4 6 2 12 -3 12 -10 0 -15 -14 -12 -32 0
-5 -8 -8 -19 -8 -14 0 -25 -12 -37 -40 -15 -33 -21 -38 -40 -34 -14 4 -23 2
-23 -6 0 -6 5 -8 10 -5 6 3 10 -1 10 -10 0 -12 -5 -15 -16 -11 -42 16 -72 -21
-36 -44 16 -11 16 -11 0 -6 -12 3 -18 0 -18 -9 0 -8 -4 -15 -10 -15 -5 0 -10
7 -10 15 0 24 -17 17 -24 -10 -4 -14 -11 -25 -16 -25 -6 0 -10 -7 -10 -15 0
-8 -4 -15 -10 -15 -5 0 -10 -14 -10 -30 0 -28 2 -30 21 -20 12 7 5 -5 -18 -29
-21 -23 -47 -41 -58 -42 -11 0 -14 -3 -7 -6 34 -14 -346 -329 -508 -420 -19
-11 -57 -33 -85 -50 -282 -166 -656 -292 -1029 -348 -181 -27 -375 -37 -591
-31 -232 6 -413 31 -407 56 5 21 128 215 188 295 164 223 360 399 591 532 186
108 337 169 818 333 432 147 682 273 905 456 169 139 350 335 350 378 0 12
-154 -89 -251 -164 -287 -223 -372 -280 -514 -350 -119 -58 -392 -161 -675
-254 -527 -174 -789 -314 -1071 -573 -144 -131 -243 -244 -339 -387 -57 -84
-130 -221 -130 -245 0 -11 -11 -13 -48 -8 -26 3 -60 11 -74 17 -25 12 -26 14
-12 46 8 18 21 90 30 161 26 207 79 399 155 561 123 262 350 528 584 683 112
75 355 188 510 238 146 48 444 114 655 146 331 51 708 185 955 340 318 200
466 367 668 755 89 172 109 232 138 422 11 79 24 147 27 153 9 15 19 -42 36
-215z m-5745 -804 c0 -353 -4 -647 -8 -655 -13 -20 -32 14 -75 132 -67 179
-78 272 -83 701 -3 208 -2 398 2 422 l6 43 67 3 c37 2 72 1 79 0 10 -3 12
-149 12 -646z m5521 -617 c0 -11 -4 -18 -10 -14 -5 3 -7 12 -3 20 7 21 13 19
13 -6z m-46 -94 c-4 -8 -8 -15 -10 -15 -2 0 -4 7 -4 15 0 8 4 15 10 15 5 0 7
-7 4 -15z m-74 -159 c0 -3 -4 -8 -10 -11 -5 -3 -10 -1 -10 4 0 6 5 11 10 11 6
0 10 -2 10 -4z m-289 -609 c-10 -9 -11 -8 -5 6 3 10 9 15 12 12 3 -3 0 -11 -7
-18z m-88 -101 c-10 -13 -20 -22 -22 -20 -4 4 29 44 36 44 2 0 -4 -11 -14 -24z
m-58 -26 c-3 -5 -2 -10 4 -10 5 0 12 6 14 13 4 7 6 6 6 -4 1 -10 -9 -19 -23
-21 -22 -4 -25 2 -17 30 1 1 6 2 12 2 5 0 7 -4 4 -10z"/>
<path d="M2483 7443 c9 -2 23 -2 30 0 6 3 -1 5 -18 5 -16 0 -22 -2 -12 -5z"/>
<path d="M7992 6238 c-11 -14 -55 -152 -67 -208 -4 -19 -22 -88 -40 -152 -22
-74 -32 -128 -29 -150 15 -99 -139 -496 -303 -778 -194 -333 -357 -534 -623
-768 -249 -219 -486 -367 -776 -485 -60 -25 -237 -88 -394 -140 -288 -95 -520
-195 -585 -251 l-30 -25 65 6 c77 7 263 53 357 89 38 14 106 36 153 50 597
170 1015 405 1409 788 163 159 283 299 379 443 98 148 112 172 210 368 113
227 165 365 212 560 22 94 54 228 71 299 33 134 47 267 35 330 -7 37 -25 46
-44 24z"/>
<path d="M8022 5561 c-6 -17 -7 -31 -3 -31 10 0 25 50 18 57 -3 2 -9 -10 -15
-26z"/>
<path d="M7383 4303 c-7 -2 -13 -9 -13 -15 0 -5 -10 -19 -22 -29 -22 -19 -22
-20 -2 -10 16 8 64 64 52 60 -2 0 -9 -3 -15 -6z"/>
<path d="M7020 3940 c-13 -8 -12 -10 3 -10 9 0 17 5 17 10 0 12 -1 12 -20 0z"/>
<path d="M6783 7713 c-13 -2 -23 -11 -23 -18 0 -8 -9 -16 -20 -20 -16 -5 -19
-14 -18 -50 1 -24 5 -43 8 -42 3 1 17 -11 32 -26 27 -27 58 -36 58 -17 0 6 5
10 11 10 18 0 76 64 92 101 14 35 14 35 -15 52 -16 9 -26 11 -22 5 5 -8 2 -9
-12 -3 -25 10 -64 14 -91 8z"/>
<path d="M4142 7619 c-4 -129 57 -382 142 -595 98 -242 251 -436 467 -591 46
-34 99 -75 117 -93 17 -17 32 -29 32 -27 0 3 -29 73 -64 155 -53 124 -188 375
-226 419 -5 7 -10 19 -10 27 0 8 -17 31 -37 52 -21 20 -37 41 -35 46 4 13 -16
9 -21 -4 -4 -8 -6 -7 -6 4 -1 9 -7 18 -13 21 -10 3 -10 9 0 26 10 18 10 22 -3
27 -8 4 -15 12 -15 20 0 7 -16 16 -35 20 -20 3 -35 12 -35 20 0 8 4 14 8 14
11 0 9 116 -2 127 -5 4 -6 -3 -2 -17 3 -14 3 -19 0 -13 -3 7 -23 17 -45 23
-21 6 -39 17 -39 24 0 8 -6 16 -14 19 -8 3 -16 30 -21 74 -4 37 -11 73 -16 79
-5 6 -8 22 -7 34 2 17 -9 31 -42 56 -25 18 -50 33 -57 33 -7 1 -14 20 -16 44
-3 31 -4 25 -5 -24z"/>
<path d="M5310 7672 c0 -21 26 -65 57 -94 33 -31 132 -80 145 -72 17 11 -35
55 -62 53 -14 0 -30 -1 -36 0 -20 2 -61 45 -82 86 -12 22 -21 34 -22 27z"/>
<path d="M6797 7387 c64 -69 87 -141 87 -272 1 -84 -3 -120 -17 -154 -22 -54
-26 -166 -6 -186 8 -8 38 -15 69 -16 68 -2 80 -11 80 -58 -1 -46 -26 -102 -84
-181 -25 -35 -44 -65 -42 -67 2 -2 16 3 32 12 16 8 34 15 41 15 27 0 205 75
288 121 50 27 119 77 155 110 36 34 57 56 48 49 -11 -7 -18 -8 -18 -2 0 5 -20
25 -45 43 -24 19 -45 42 -45 52 0 9 -4 17 -9 17 -5 0 -16 6 -23 14 -8 8 -37
25 -64 39 -51 26 -81 53 -71 63 3 3 -2 14 -11 24 -44 48 -53 65 -79 143 -3 9
-9 17 -14 17 -5 0 -18 15 -29 33 -11 17 -20 25 -20 17 -1 -8 -16 15 -35 51
-19 37 -47 77 -63 90 -15 14 -31 32 -34 41 -9 22 -87 35 -99 17 -6 -10 -9 -11
-9 -1 0 6 -5 12 -11 12 -6 0 6 -19 28 -43z"/>
<path d="M5830 7375 c-11 -13 -15 -13 -21 -3 -6 9 -9 6 -9 -9 0 -16 -4 -21
-15 -17 -8 4 -15 3 -15 0 0 -3 28 -20 63 -37 97 -49 194 -115 244 -167 65 -66
90 -128 104 -250 7 -56 15 -102 19 -102 4 0 59 15 121 34 125 38 218 56 292
56 30 0 46 4 42 10 -3 6 -16 10 -28 10 -17 0 -19 2 -8 9 11 7 1 16 -42 36 -31
14 -57 30 -57 35 0 6 -11 10 -25 10 -14 0 -25 3 -25 8 0 4 -19 27 -43 52 -42
44 -111 81 -207 112 -25 8 -44 19 -42 26 1 7 -5 12 -14 12 -17 0 -44 23 -44
38 0 12 -46 32 -75 32 -14 0 -25 5 -25 11 0 6 -6 9 -14 6 -9 -4 -12 0 -9 12 3
12 -11 24 -56 46 -34 16 -61 32 -61 37 0 14 -37 9 -50 -7z"/>
<path d="M4743 7315 c0 -22 2 -30 4 -17 2 12 2 30 0 40 -3 9 -5 -1 -4 -23z"/>
<path d="M4726 7196 c-3 -28 -7 -85 -8 -126 -2 -86 6 -105 124 -302 l71 -118
35 86 c39 98 82 181 123 238 23 31 26 43 18 58 -6 11 -13 17 -16 14 -3 -3 0
-12 7 -21 11 -13 10 -14 -4 -9 -9 3 -16 12 -16 19 0 8 -10 17 -22 21 -12 3
-45 28 -72 54 -63 59 -123 90 -174 90 -35 0 -39 2 -37 23 2 14 -2 24 -10 24
-8 0 -15 -19 -19 -51z m319 -234 c-17 -15 -18 -15 -6 0 7 9 9 23 5 30 -6 10
-4 11 7 0 11 -10 10 -15 -6 -30z"/>
<path d="M5080 6779 c0 -5 5 -7 10 -4 6 3 10 8 10 11 0 2 -4 4 -10 4 -5 0 -10
-5 -10 -11z"/>
<path d="M5036 6648 c-20 -62 -32 -115 -28 -118 232 -187 408 -281 750 -400
l124 -43 89 12 c115 15 297 75 424 139 123 62 216 121 192 122 -10 0 -22 10
-27 23 -5 13 -9 16 -10 7 0 -13 -1 -13 -10 0 -9 13 -10 13 -10 0 0 -10 -3 -11
-8 -4 -4 6 -26 21 -49 33 -36 18 -60 21 -165 21 -112 0 -326 21 -347 34 -5 3
-55 0 -112 -8 -69 -9 -108 -10 -116 -4 -7 6 -24 7 -38 4 -17 -4 -43 3 -85 24
-33 16 -69 30 -80 30 -12 0 -35 7 -53 17 -35 18 -142 49 -224 65 -42 8 -53 14
-53 29 0 12 -7 19 -19 19 -10 0 -21 7 -24 14 -3 8 -24 20 -46 26 -36 9 -39 13
-35 40 10 59 -5 28 -40 -82z"/>
<path d="M6785 6323 c-16 -9 -57 -35 -90 -58 -68 -48 -203 -118 -315 -164 -41
-16 -102 -41 -135 -55 -33 -14 -73 -26 -90 -26 -35 -1 -37 0 93 -49 252 -96
606 -152 772 -122 102 17 140 30 140 47 0 8 -4 13 -9 9 -12 -7 -66 49 -88 90
-9 16 -31 45 -49 65 -19 19 -34 38 -34 42 0 4 -6 13 -13 20 -18 19 -67 122
-67 141 0 10 -4 17 -10 17 -5 0 -10 9 -10 20 0 15 -7 20 -27 20 -22 0 -25 2
-13 10 27 17 -21 11 -55 -7z"/>
<path d="M5100 6292 c0 -4 14 -21 30 -37 21 -20 30 -24 30 -13 0 14 -20 37
-47 52 -7 4 -13 3 -13 -2z"/>
<path d="M5420 6110 c14 -11 32 -20 40 -20 19 0 3 13 -35 28 l-30 13 25 -21z"/>
<path d="M5430 5943 c14 -10 59 -45 101 -79 278 -224 751 -380 1018 -335 76
12 197 67 240 108 l30 29 -37 0 c-34 0 -81 14 -124 35 -10 5 -26 9 -37 9 -17
0 -68 18 -116 40 -11 6 -81 23 -155 40 -74 17 -139 32 -145 34 -5 1 -17 5 -25
8 -55 20 -116 29 -251 38 -220 15 -400 43 -476 75 -46 20 -53 19 -23 -2z"/>
<path d="M5242 5924 c7 -9 41 -45 76 -81 34 -36 62 -70 62 -76 0 -5 -7 -4 -15
3 -15 12 -55 5 -55 -11 0 -5 -25 -9 -55 -9 -30 0 -55 -4 -55 -10 0 -14 -117
-13 -122 1 -2 7 -57 15 -138 20 -74 5 -153 14 -175 20 -22 5 -62 16 -90 24
-27 8 -92 16 -142 18 -85 4 -93 3 -93 -14 0 -10 -5 -21 -12 -25 -7 -4 -8 -3
-4 5 4 6 0 24 -10 39 -10 15 -17 32 -16 37 2 6 -2 5 -8 -1 -21 -21 76 -186
157 -270 101 -104 211 -163 495 -264 123 -44 221 -66 328 -75 149 -12 335 43
461 135 37 26 77 54 89 60 20 11 17 14 -53 45 -42 17 -90 42 -109 53 -18 12
-51 31 -73 43 -22 12 -51 30 -64 40 -13 10 -28 16 -34 12 -5 -3 -7 -1 -4 5 6
9 -33 43 -117 102 -12 8 -67 54 -123 102 -97 84 -129 107 -101 72z"/>
<path d="M4538 5843 c12 -2 32 -2 45 0 12 2 2 4 -23 4 -25 0 -35 -2 -22 -4z"/>
<path d="M6817 5689 c8 -8 16 -8 30 0 16 9 14 10 -11 11 -22 0 -27 -3 -19 -11z"/>
<path d="M4500 5049 c-42 -68 -61 -89 -93 -103 -18 -8 -41 -20 -51 -28 -18
-14 -18 -15 3 -21 13 -3 19 -1 15 5 -4 6 2 8 16 3 15 -5 20 -4 16 4 -4 7 1 11
13 11 14 0 21 -6 21 -20 0 -11 5 -20 11 -20 5 0 7 -4 4 -10 -3 -5 -1 -10 4
-10 6 0 11 -7 11 -16 0 -8 4 -13 8 -10 5 3 9 -1 9 -8 0 -24 25 -76 37 -75 6 0
33 27 61 61 36 43 49 68 48 87 -2 23 -2 24 6 6 7 -15 10 -16 10 -4 1 9 -8 24
-19 34 -11 10 -20 22 -20 28 0 11 -73 126 -80 126 -4 1 -17 -17 -30 -40z"/>
<path d="M4680 4910 c0 -5 7 -10 16 -10 8 0 12 5 9 10 -3 6 -10 10 -16 10 -5
0 -9 -4 -9 -10z"/>
<path d="M7495 3268 c-33 -33 -55 -58 -49 -55 6 4 20 -1 30 -9 10 -9 13 -12 6
-9 -8 4 8 -20 34 -54 l47 -61 19 31 c14 24 19 47 17 93 -1 33 -7 64 -13 68 -7
5 -4 8 7 8 11 0 17 -6 15 -16 -2 -10 3 -19 10 -21 6 -3 12 0 12 6 0 12 -59 81
-69 81 -3 0 -33 -28 -66 -62z m20 -18 c-3 -5 -12 -10 -18 -10 -7 0 -6 4 3 10
19 12 23 12 15 0z"/>
<path d="M1838 2641 c-100 -33 -165 -86 -210 -171 -19 -38 -23 -60 -23 -140 0
-81 4 -102 24 -140 39 -75 86 -125 153 -161 59 -32 69 -34 154 -34 82 0 96 3
155 33 35 18 77 44 93 56 l28 24 -42 46 -43 47 -26 -25 c-39 -37 -93 -56 -163
-56 -75 0 -113 20 -158 81 -54 75 -59 146 -17 237 28 60 82 95 157 100 69 5
120 -10 165 -49 l32 -29 46 45 45 46 -32 23 c-106 80 -227 104 -338 67z"/>
<path d="M2655 2637 c-88 -32 -177 -122 -200 -202 -64 -220 91 -439 310 -438
236 1 397 221 316 432 -42 110 -107 173 -218 212 -72 24 -133 23 -208 -4z
m210 -121 c21 -11 53 -41 70 -64 27 -40 30 -51 30 -125 0 -74 -3 -86 -29 -125
-44 -64 -88 -87 -168 -87 -58 0 -72 4 -109 30 -122 86 -126 281 -6 364 65 45
137 47 212 7z"/>
<path d="M3555 2640 c-28 -11 -67 -36 -85 -56 -34 -34 -35 -38 -35 -112 0 -65
4 -82 23 -110 27 -36 85 -69 183 -101 37 -12 74 -30 84 -41 23 -25 16 -69 -16
-93 -46 -33 -161 -19 -216 27 l-28 24 -35 -45 -34 -45 26 -22 c15 -11 55 -32
88 -45 141 -56 289 -11 341 104 24 52 24 89 -1 141 -26 52 -70 83 -182 124
-103 38 -136 67 -122 107 14 40 49 55 118 49 45 -3 64 -10 86 -31 l27 -26 12
30 c7 16 21 37 32 47 10 9 19 20 19 24 0 4 -28 20 -62 36 -81 36 -156 41 -223
14z"/>
<path d="M4753 2648 c-73 -13 -122 -69 -198 -225 -33 -67 -63 -122 -67 -122
-3 -1 -12 16 -18 37 -22 65 -109 226 -144 263 -28 30 -43 38 -80 40 l-45 4 -6
-50 c-3 -27 -6 -173 -8 -323 l-2 -272 53 0 53 0 -3 205 c-2 113 -2 205 -1 205
4 0 41 -88 58 -140 26 -79 89 -213 107 -228 9 -7 22 -10 30 -7 20 8 95 139
148 258 24 54 49 102 55 107 14 12 25 -119 25 -292 l0 -108 63 0 63 0 -1 288
c-2 366 -2 372 -17 371 -7 -1 -36 -6 -65 -11z"/>
<path d="M7510 2646 c-94 -26 -163 -81 -216 -172 -24 -40 -29 -62 -32 -136 -4
-83 -3 -92 27 -153 36 -72 101 -136 171 -168 34 -15 66 -20 130 -20 97 0 145
16 229 79 l51 38 -43 44 -44 43 -30 -29 c-37 -34 -92 -52 -161 -52 -91 0 -138
31 -178 115 -70 148 30 304 195 305 60 0 134 -29 154 -61 15 -24 24 -24 31 -1
4 10 20 32 36 49 l30 31 -47 30 c-111 71 -197 87 -303 58z"/>
<path d="M8308 2648 c-43 -11 -112 -68 -133 -109 -20 -37 -19 -123 2 -166 22
-48 70 -76 189 -112 98 -30 134 -52 134 -82 -1 -24 -25 -48 -65 -65 -34 -14
-47 -14 -98 -3 -32 6 -73 22 -90 33 -18 12 -37 25 -44 29 -7 5 -24 -10 -43
-38 -37 -54 -38 -54 70 -107 56 -27 76 -32 145 -32 69 -1 88 3 138 28 125 61
163 183 85 272 -39 44 -69 59 -187 96 -53 17 -104 37 -113 46 -47 41 1 103 84
110 48 4 58 1 108 -33 30 -20 56 -32 58 -26 2 5 17 28 33 51 17 23 29 43 27
44 -89 64 -205 89 -300 64z"/>
<path d="M5228 2643 l-76 -4 1 -313 2 -313 65 -7 c36 -3 140 -6 233 -6 l167 0
0 63 0 62 -172 0 -173 0 0 75 0 75 148 3 c106 2 149 6 152 15 2 6 6 29 10 50
l6 37 -109 0 c-60 0 -130 3 -156 6 l-46 7 0 67 0 67 68 6 c37 4 108 7 158 7
102 0 104 1 104 71 l0 39 -152 -2 c-84 -1 -188 -4 -230 -5z"/>
<path d="M5875 2637 c-2 -7 -6 -33 -9 -59 l-6 -48 118 0 117 0 4 -263 c2 -144
4 -262 5 -262 0 -1 29 1 64 3 54 3 62 6 57 20 -4 10 -9 128 -12 264 l-6 246
121 -5 122 -6 0 60 0 59 -286 1 c-208 1 -286 -2 -289 -10z"/>
<path d="M6782 2328 l1 -323 66 0 67 0 3 323 3 322 -71 0 -70 0 1 -322z"/>
<path d="M3774 1672 c3 -20 6 -88 6 -150 0 -102 2 -113 17 -110 11 2 20 18 26
46 7 38 10 41 28 32 10 -6 27 -23 36 -38 22 -35 43 -52 65 -52 15 0 14 7 -14
51 -25 42 -29 55 -20 68 48 66 52 120 10 142 -13 7 -54 20 -92 30 l-68 18 6
-37z m125 -56 c10 -12 8 -19 -8 -35 -22 -22 -30 -24 -55 -15 -16 6 -22 45 -9
57 12 12 60 7 72 -7z"/>
<path d="M3198 1684 c-33 -18 -48 -43 -48 -82 0 -25 8 -35 53 -63 59 -38 67
-47 60 -66 -7 -18 -43 -17 -71 3 -25 17 -42 11 -42 -16 0 -27 38 -50 81 -50
28 0 45 7 68 31 53 52 37 86 -68 153 -38 24 -42 30 -27 38 9 5 35 7 57 3 43
-7 49 1 22 33 -25 28 -53 34 -85 16z"/>
<path d="M6523 1674 c-46 -36 -46 -81 1 -122 19 -17 44 -33 55 -37 25 -8 27
-27 6 -45 -13 -10 -19 -10 -33 4 -25 21 -49 20 -62 -3 -8 -16 -5 -23 16 -40
15 -12 39 -21 53 -21 42 0 110 56 111 91 0 21 -55 70 -98 88 -18 7 -32 20 -32
27 0 19 47 29 66 14 11 -10 18 -10 27 -1 9 9 8 18 -3 39 -22 38 -65 40 -107 6z"/>
<path d="M6760 1668 c0 -26 3 -28 40 -28 l40 0 0 -79 c0 -106 8 -141 31 -141
17 0 19 9 19 110 l0 110 46 0 c42 0 45 1 38 23 -3 12 -7 23 -8 24 0 0 -47 3
-104 5 l-102 3 0 -27z"/>
<path d="M2550 1547 l0 -143 63 4 c81 6 118 22 152 67 21 27 28 48 28 79 0 85
-68 136 -183 136 l-60 0 0 -143z m139 72 c83 -29 58 -133 -36 -146 l-41 -5 -4
81 -3 81 26 0 c14 0 40 -5 58 -11z"/>
<path d="M3460 1660 c0 -27 3 -30 34 -30 l34 0 7 -115 c6 -99 10 -116 24 -113
13 3 16 22 19 120 l3 117 44 7 c40 5 43 8 34 25 -8 17 -22 19 -104 19 l-95 0
0 -30z"/>
<path d="M4094 1674 c3 -9 6 -69 6 -135 0 -111 1 -119 19 -119 18 0 20 9 23
126 3 124 3 127 -20 135 -32 12 -35 11 -28 -7z"/>
<path d="M4293 1634 c3 -33 6 -96 6 -141 l1 -83 64 0 c59 0 66 2 90 31 29 34
32 56 12 84 -10 14 -12 35 -9 70 7 68 -14 88 -104 93 l-65 4 5 -58z m105 -26
c-5 -50 -40 -47 -53 5 -7 25 -5 27 25 27 29 0 31 -2 28 -32z m-7 -88 c23 -13
25 -46 2 -54 -23 -9 -44 14 -37 42 7 25 8 26 35 12z"/>
<path d="M4592 1596 c6 -107 23 -142 84 -171 44 -21 93 -14 131 20 27 22 28
27 31 134 4 108 3 111 -18 111 -20 0 -21 -4 -18 -94 2 -61 -1 -99 -8 -106 -6
-6 -29 -14 -51 -17 -52 -7 -71 14 -53 56 6 17 9 35 5 40 -9 15 -32 14 -38 -1
-3 -7 -6 17 -6 55 l-1 67 -31 0 -32 0 5 -94z"/>
<path d="M4948 1660 c-4 -29 -4 -30 39 -30 l43 0 0 -104 c0 -94 2 -104 19
-109 11 -3 22 -2 25 1 3 3 6 54 6 114 l0 108 45 0 c30 0 45 4 45 13 0 29 -25
37 -121 37 l-97 0 -4 -30z"/>
<path d="M5286 1558 c6 -122 12 -147 37 -148 4 0 7 63 7 140 l0 140 -26 0 -25
0 7 -132z"/>
<path d="M5529 1650 c-51 -53 -60 -99 -29 -156 32 -62 53 -77 104 -77 74 0
136 61 136 133 0 77 -60 140 -134 140 -33 0 -45 -7 -77 -40z m125 -41 c31 -36
35 -88 9 -111 -53 -46 -90 -43 -118 12 -23 45 -19 75 16 104 40 34 62 33 93
-5z"/>
<path d="M5886 1628 c-7 -74 3 -200 18 -210 23 -16 26 -6 26 79 0 85 0 87 17
63 42 -62 117 -140 134 -140 18 0 19 9 19 135 0 125 -1 135 -19 135 -14 0 -20
-10 -25 -46 -3 -26 -6 -65 -6 -86 l0 -40 -59 80 c-32 43 -68 81 -79 84 -17 5
-20 -1 -26 -54z"/>
<path d="M7144 1671 c-39 -24 -74 -79 -74 -118 0 -29 39 -93 74 -122 9 -8 37
-14 61 -14 106 0 178 111 130 203 -33 64 -128 89 -191 51z m115 -46 c51 -26
56 -82 12 -126 -40 -40 -83 -39 -122 2 -39 41 -37 70 6 108 40 34 62 38 104
16z"/>
<path d="M7492 1554 c3 -136 4 -139 26 -142 20 -3 22 0 22 47 0 28 4 51 10 51
5 0 25 -22 42 -50 26 -39 39 -50 61 -50 34 0 34 12 1 55 l-25 34 22 31 c31 41
29 94 -5 128 -21 21 -37 27 -91 30 l-66 4 3 -138z m109 76 c26 -14 25 -56 -2
-70 -32 -18 -69 -4 -69 24 0 54 25 70 71 46z"/>
<path d="M7820 1581 c0 -60 -3 -123 -6 -140 l-6 -31 70 0 c83 0 102 6 102 31
0 16 -8 19 -55 19 l-55 0 0 33 c0 32 0 32 46 29 45 -4 45 -4 42 24 -3 26 -7
29 -45 32 -28 2 -43 8 -43 17 0 7 -3 20 -6 29 -5 14 3 16 55 16 58 0 61 1 61
25 0 25 -1 25 -80 25 l-80 0 0 -109z"/>
<path d="M2946 1658 c-8 -30 -8 -196 0 -225 4 -13 14 -23 24 -23 21 0 30 53
30 181 0 87 -1 89 -24 89 -16 0 -26 -7 -30 -22z"/>
</g>
</svg>
